# xmcd CD database file
#
# Track frame offsets:
#	150
#	6097
#	23652
#	58295
#	103880
#	130995
#	170765
#
# Disc length: 2549 seconds
#
# Revision: 0
# Processed by: cddbd v1.5.1PL0 Copyright (c) Steve Scherf et al.
# Submitted via: CDex 1.51
#
DISCID=5d09f307
DTITLE=Doug Carn - Infant Eyes
DYEAR=1971
DGENRE=Jazz
TTITLE0=Welcome
TTITLE1=Little B's Poem
TTITLE2=Moon Child
TTITLE3=Infant Eyes
TTITLE4=Passion Dance
TTITLE5=Acknowledgement
TTITLE6=Peace
EXTD=YEAR: 1971
EXTT0=
EXTT1=
EXTT2=
EXTT3=
EXTT4=
EXTT5=
EXTT6=
PLAYORDER=
